/* XPM */
static char *_557db4832f243ccf53b05c42b608b33VxlYNpgGBnc2eJKJ[] = {
/* columns rows colors chars-per-pixel */
"64 64 114 2 ",
"   c black",
".  c #806752",
"X  c #7F6752",
"o  c #BFA38C",
"O  c #FFE0C7",
"+  c #806752",
"@  c #806752",
"#  c #806752",
"$  c #7F6651",
"%  c #7F6651",
"&  c #7F6651",
"*  c #886D57",
"=  c #8F735B",
"-  c #806752",
";  c None",
":  c #806752",
">  c #806752",
",  c #7F6651",
"<  c #7F6651",
"1  c #7F6651",
"2  c #7F6651",
"3  c #806752",
"4  c #8E725B",
"5  c #7E6551",
"6  c #806752",
"7  c #806752",
"8  c #7F6651",
"9  c #7F6651",
"0  c #7E6551",
"q  c #886D57",
"w  c #8E725B",
"e  c #8D715A",
"r  c #8D6E5A",
"t  c #D89786",
"y  c #876B56",
"u  c #8C6E59",
"i  c #7E6651",
"p  c #8C6E59",
"a  c #7F6651",
"s  c #7E6651",
"d  c #91755D",
"f  c #F1C39D",
"g  c #765E49",
"h  c #C4A68E",
"j  c #FDDCC1",
"k  c #FFE9D0",
"l  c #FFE1C8",
"z  c #FFDEC3",
"x  c #FFD0A9",
"c  c #FFE0C7",
"v  c #FFE0C7",
"b  c #FFDFC5",
"n  c #FFE0C7",
"m  c #FFE0C7",
"M  c #FFE0C7",
"N  c #FFE0C7",
"B  c #FFE0C7",
"V  c #8F735B",
"C  c #F1C098",
"Z  c #FFCEA2",
"A  c #F0C098",
"S  c #FFCDA2",
"D  c #8D725A",
"F  c #816853",
"G  c #F1C198",
"H  c #E2B58F",
"J  c #8C7059",
"K  c #8E725A",
"L  c #F0C097",
"P  c #F2C199",
"I  c #9A7962",
"U  c #FFCCA1",
"Y  c #FCC69F",
"T  c #E6A38F",
"R  c #FDC7A0",
"E  c #F2AA97",
"W  c #F2A996",
"Q  c #FDC8A0",
"!  c #F3AE98",
"~  c #FFCBA1",
"^  c #F2C299",
"/  c #9C7E64",
"(  c #FDCBA0",
")  c #8E725B",
"_  c #8F725B",
"`  c #EEBC96",
"'  c #FEC9A0",
"]  c #9D7E64",
"[  c #8E6F5A",
"{  c #E5A28F",
"}  c #F5AF99",
"|  c #FEC8A0",
" . c #FFCDA1",
".. c #E6A390",
"X. c #FAC29D",
"o. c #9C7D63",
"O. c #997561",
"+. c #F1C199",
"@. c #E6A28F",
"#. c #F4AE98",
"$. c #E4A18E",
"%. c #8D6E5A",
"&. c #F4AD98",
"*. c #FCC49E",
"=. c #FDC49F",
"-. c #F3AD97",
";. c #FFCFA6",
":. c #FFCCA2",
">. c #FFDCBF",
",. c #FFCEA5",
"<. c #FFCCA0",
"1. c #FFCEA6",
"2. c #FFDEC2",
"3. c white",
/* pixels */
"                                                                                                                                ",
"                                                                                                                                ",
"                                                                                                                                ",
"                                                                                                                                ",
"                                                            . . . . . . . .                                                     ",
"                                                            . + @ # # @ + .                                                     ",
"                                                        . . X $ % & & % $ X . .                                                 ",
"                                                        . + $ * = V V = * $ + .                                                 ",
"                                                . . . . . - % = ; C C ; = % - . . . . .                                         ",
"                                                . + @ # : > , V C Z Z C V , > : # @ + .                                         ",
"                                            . . X $ % & < 1 2 V A S S A V 2 1 < & % $ X . .                                     ",
"                                            . + $ * = V V D F V A S S A V F D V V = * $ + .                                     ",
"                                            . @ % = ; C G H J K L S S L K J H G C ; = % @ .                                     ",
"                                            . # & V C Z Z P I I G S S G I I P Z Z C V & # .                                     ",
"                                            . # < V A S U Y T T Y U U Y T T Y U S A V < : . . . . .                             ",
"                                            . # < V A S U R E E R U U R E E R U S A V 1 3 : # @ + .                             ",
"                                            . # < V A S U R W W R U U R W W R U S A V 2 1 < & % $ X . .                         ",
"                                            . # < V A S U R W W R U U R W W R U S A V F D V V = * $ + .                         ",
"                                            . # < V A S U R W W R U U R W W R U S L K J H G C ; = % @ .                         ",
"                                            . # < V A S U R W W R U U R W W R U S G I I P Z Z C V & # .                         ",
"                                            . # < V A S U R W W R U U R W W R U U Y T T Y U S A V < # .                         ",
"                                            . # < V A S U R W W R U U R W W R U U R E E R U S A V < # .                         ",
"                                            . # < V A S U R W W R U U R W W R U U R W W R U S A V < # .                         ",
"                                            . # < V A S U R W W R U U R W W R U U R W W R U S A V < # .                         ",
"                                            . # < V A S U R W W R U U R W W R U U R W W R U S A V < # .                         ",
"                                            . # < V A S U Q ! ! Q U U Q ! ! Q U U R W W R U S A V < # .                         ",
"                        . . . . . . . .     . # < V A S U ~ Q Q ~ U U ~ Q Q ~ U U R W W R U S A V < # .                         ",
"                        . + @ # # @ + .     . # < V A S U U U U U U U U U U U U U Q ! ! Q U S A V < # .                         ",
"                    . . X $ % & & % $ X . . . # < V A S U U U U U U U U U U U U U ~ Q Q ~ U S A V < # .                         ",
"                    . + $ * = V V = * $ + . . # < V A S U U U U U U U U U U U U U U U U U U S A V < # .                         ",
"                    . @ % = ; C G ; 4 5 $ X . # < V A S U U U U U U U U U U U U U U U U U U S A V < # .                         ",
"                    . # & V C Z S ^ / 4 * $ 6 7 < V A S U U U U U U U U U U U U U U U U U U S A V < # .                         ",
"                    . # < V A S U ( ^ ; 4 5 8 9 0 ) L S U U U U U U U U U U U U U U U U U U S A V < # .                         ",
"                    . # < _ ` ' ~ U S ^ / 4 q q w ] P S U U U U U U U U U U U U U U U U U U S A V < # .                         ",
"                    . # & [ { } |  .U ( ^ ; e e ; ^ ( U U U U U U U U U U U U U U U U U U U S A V < # .                         ",
"                    . @ % r t ..X.| ~ U S ^ o.o.^ S U U U U U U U U U U U U U U U U U U U U S A V < # .                         ",
"                    . + $ y u O...} |  .U ( +.+.( U U U U U U U U U U U U U U U U U U U U U S A V < # .                         ",
"                    . . . $ i u t ..X.| ~ U S S U U U U U U U U U U U U U U U U U U U U U U S A V < # .                         ",
"                        . + $ y u O...} |  .U U U U U U U U U U U U U U U U U U U U U U U U S A V < # .                         ",
"                        . . . $ i u t ..X.| ~ U U U U U U U U U U U U U U U U U U U U U U U S A V < # .                         ",
"                            . + $ y u O...} |  .U U U U U U U U U U U U U U U U U U U U U U S A V < # .                         ",
"                            . . . $ i u t ..X.| ~ U U U U U U U U U U U U U U U U U U U U U S A V < # .                         ",
"                                . + $ y u O...} |  .U U U U U U U U U U U U U U U U U U U U S A V < # .                         ",
"                                . . . $ i u t ..X.| ~ U U U U U U U U U U U U U U U U U U U S A V < # .                         ",
"                                    . + $ y u O...} |  .U U U U U U U U U U U U U U U U U U S A V < # .                         ",
"                                    . . . $ i u t ..X.| ~ U U U U U U U U U U U U U U U U ~ ' ` _ < # .                         ",
"                                        . + $ y p O.@.#.|  .U U U U U U U U U U U U U U  .| #.$.[ < # .                         ",
"                                        . . . a s %.$.&.*.Q R Q ~ U U U U ~ Q R R R R R Q *.&.$.[ < # .                         ",
"                                            . # < _ ` =.-.W W ! Q U U U U Q ! W W W W W W -.=.` _ < # .                         ",
"                                            . # < V A ' ! W W ! Q U U U U Q ! W W W W W W ! ' A V < # .                         ",
"                                            . # < V A U Q R R Q ~ U U U U ~ Q R R R R R R Q U A V < # .                         ",
"                                            . # < V A S U U U U U U U U U U U U U U U U U U S A V < # .                         ",
"                                            . # < V A S U U U U U U U U U U U U U U U U U U S A V < # .                         ",
"                                            . # < V A S U U U U U U U U U U U U U U U U U U S A V < # .                         ",
"                                            . # & V L  .U U U U U U U U U U U U U U U U U U  .L V & # .                         ",
"                                            . @ % d f ;.:.U U U U U U U U U U U U U U U U :.;.f d % @ .                         ",
"                                            . + g h j >.,.<.U U U U U U U U U U U U U U <.,.>.j h g + .                         ",
"                                            . . o k l z x ,.1.1.1.1.1.1.1.1.1.1.1.1.1.1.,.x z l k o . .                         ",
"                                                O c v b z 2.2.2.2.2.2.2.2.2.2.2.2.2.2.2.2.z b v c O                             ",
"                                                O O O v n m M M M M M M M M M M M M M M m n v O O O                             ",
"                                                    O c N B B B B B B B B B B B B B B B B N c O                                 ",
"                                                    O O O O O O O O O O O O O O O O O O O O O O                                 ",
"                                                                                                                                ",
"                                                                                                                                "
};
