/* XPM */
static char *_9a5ba54a551421eefa971da1abb4ffaD8fY6TNlQm11zXuN[] = {
/* columns rows colors chars-per-pixel */
"64 64 114 2 ",
"   c black",
".  c #806752",
"X  c #7F6752",
"o  c #BFA38C",
"O  c #FFE0C7",
"+  c #806752",
"@  c #806752",
"#  c #806752",
"$  c #7F6651",
"%  c #7F6651",
"&  c #7F6651",
"*  c #886D57",
"=  c #8F735B",
"-  c #806752",
";  c None",
":  c #806752",
">  c #806752",
",  c #7F6651",
"<  c #7F6651",
"1  c #7F6651",
"2  c #7F6651",
"3  c #806752",
"4  c #7E6551",
"5  c #8E725B",
"6  c #806752",
"7  c #806752",
"8  c #7E6551",
"9  c #7F6651",
"0  c #7F6651",
"q  c #8E725B",
"w  c #886D57",
"e  c #8D715A",
"r  c #D89786",
"t  c #8D6E5A",
"y  c #8C6E59",
"u  c #876B56",
"i  c #7E6651",
"p  c #8C6E59",
"a  c #7E6651",
"s  c #7F6651",
"d  c #91755D",
"f  c #F1C39D",
"g  c #765E49",
"h  c #C4A68E",
"j  c #FDDCC1",
"k  c #FFE9D0",
"l  c #FFE1C8",
"z  c #FFDEC3",
"x  c #FFD0A9",
"c  c #FFE0C7",
"v  c #FFE0C7",
"b  c #FFDFC5",
"n  c #FFE0C7",
"m  c #FFE0C7",
"M  c #FFE0C7",
"N  c #FFE0C7",
"B  c #FFE0C7",
"V  c #8F735B",
"C  c #F1C098",
"Z  c #FFCEA2",
"A  c #F0C098",
"S  c #FFCDA2",
"D  c #8D725A",
"F  c #816853",
"G  c #F1C198",
"H  c #E2B58F",
"J  c #8C7059",
"K  c #8E725A",
"L  c #F0C097",
"P  c #F2C199",
"I  c #9A7962",
"U  c #FFCCA1",
"Y  c #FCC69F",
"T  c #E6A38F",
"R  c #FDC7A0",
"E  c #F2AA97",
"W  c #F2A996",
"Q  c #FDC8A0",
"!  c #F3AE98",
"~  c #FFCBA1",
"^  c #9C7E64",
"/  c #F2C299",
"(  c #8E725B",
")  c #FDCBA0",
"_  c #9D7E64",
"`  c #FEC9A0",
"'  c #EEBC96",
"]  c #8F725B",
"[  c #FFCDA1",
"{  c #FEC8A0",
"}  c #F5AF99",
"|  c #E5A28F",
" . c #8E6F5A",
".. c #9C7D63",
"X. c #FAC29D",
"o. c #E6A390",
"O. c #F1C199",
"+. c #997561",
"@. c #E4A18E",
"#. c #F4AE98",
"$. c #E6A28F",
"%. c #F4AD98",
"&. c #FCC49E",
"*. c #8D6E5A",
"=. c #FDC49F",
"-. c #F3AD97",
";. c #FFCFA6",
":. c #FFCCA2",
">. c #FFDCBF",
",. c #FFCEA5",
"<. c #FFCCA0",
"1. c #FFCEA6",
"2. c #FFDEC2",
"3. c white",
/* pixels */
"                                                                                                                                ",
"                                                                                                                                ",
"                                                                                                                                ",
"                                                                                                                                ",
"                                                    . . . . . . . .                                                             ",
"                                                    . + @ # # @ + .                                                             ",
"                                                . . X $ % & & % $ X . .                                                         ",
"                                                . + $ * = V V = * $ + .                                                         ",
"                                        . . . . . - % = ; C C ; = % - . . . . .                                                 ",
"                                        . + @ # : > , V C Z Z C V , > : # @ + .                                                 ",
"                                    . . X $ % & < 1 2 V A S S A V 2 1 < & % $ X . .                                             ",
"                                    . + $ * = V V D F V A S S A V F D V V = * $ + .                                             ",
"                                    . @ % = ; C G H J K L S S L K J H G C ; = % @ .                                             ",
"                                    . # & V C Z Z P I I G S S G I I P Z Z C V & # .                                             ",
"                            . . . . . : < V A S U Y T T Y U U Y T T Y U S A V < # .                                             ",
"                            . + @ # : 3 1 V A S U R E E R U U R E E R U S A V < # .                                             ",
"                        . . X $ % & < 1 2 V A S U R W W R U U R W W R U S A V < # .                                             ",
"                        . + $ * = V V D F V A S U R W W R U U R W W R U S A V < # .                                             ",
"                        . @ % = ; C G H J K L S U R W W R U U R W W R U S A V < # .                                             ",
"                        . # & V C Z Z P I I G S U R W W R U U R W W R U S A V < # .                                             ",
"                        . # < V A S U Y T T Y U U R W W R U U R W W R U S A V < # .                                             ",
"                        . # < V A S U R E E R U U R W W R U U R W W R U S A V < # .                                             ",
"                        . # < V A S U R W W R U U R W W R U U R W W R U S A V < # .                                             ",
"                        . # < V A S U R W W R U U R W W R U U R W W R U S A V < # .                                             ",
"                        . # < V A S U R W W R U U R W W R U U R W W R U S A V < # .                                             ",
"                        . # < V A S U R W W R U U Q ! ! Q U U Q ! ! Q U S A V < # .                                             ",
"                        . # < V A S U R W W R U U ~ Q Q ~ U U ~ Q Q ~ U S A V < # .     . . . . . . . .                         ",
"                        . # < V A S U Q ! ! Q U U U U U U U U U U U U U S A V < # .     . + @ # # @ + .                         ",
"                        . # < V A S U ~ Q Q ~ U U U U U U U U U U U U U S A V < # . . . X $ % & & % $ X . .                     ",
"                        . # < V A S U U U U U U U U U U U U U U U U U U S A V < # . . + $ * = V V = * $ + .                     ",
"                        . # < V A S U U U U U U U U U U U U U U U U U U S A V < # . X $ 4 5 ; G C ; = % @ .                     ",
"                        . # < V A S U U U U U U U U U U U U U U U U U U S A V < 6 7 $ * 5 ^ / S Z C V & # .                     ",
"                        . # < V A S U U U U U U U U U U U U U U U U U U S L ( 8 9 0 4 5 ; / ) U S A V < # .                     ",
"                        . # < V A S U U U U U U U U U U U U U U U U U U S P _ q w w 5 ^ / S U ~ ` ' ] < # .                     ",
"                        . # < V A S U U U U U U U U U U U U U U U U U U U ) / ; e e ; / ) U [ { } |  .& # .                     ",
"                        . # < V A S U U U U U U U U U U U U U U U U U U U U S / ..../ S U ~ { X.o.r t % @ .                     ",
"                        . # < V A S U U U U U U U U U U U U U U U U U U U U U ) O.O.) U [ { } o.+.y u $ + .                     ",
"                        . # < V A S U U U U U U U U U U U U U U U U U U U U U U S S U ~ { X.o.r y i $ . . .                     ",
"                        . # < V A S U U U U U U U U U U U U U U U U U U U U U U U U [ { } o.+.y u $ + .                         ",
"                        . # < V A S U U U U U U U U U U U U U U U U U U U U U U U ~ { X.o.r y i $ . . .                         ",
"                        . # < V A S U U U U U U U U U U U U U U U U U U U U U U [ { } o.+.y u $ + .                             ",
"                        . # < V A S U U U U U U U U U U U U U U U U U U U U U ~ { X.o.r y i $ . . .                             ",
"                        . # < V A S U U U U U U U U U U U U U U U U U U U U [ { } o.+.y u $ + .                                 ",
"                        . # < V A S U U U U U U U U U U U U U U U U U U U ~ { X.o.r y i $ . . .                                 ",
"                        . # < V A S U U U U U U U U U U U U U U U U U U [ { } o.+.y u $ + .                                     ",
"                        . # < ] ' ` ~ U U U U U U U U U U U U U U U U ~ { X.o.r y i $ . . .                                     ",
"                        . # <  .@.#.{ [ U U U U U U U U U U U U U U [ { #.$.+.p u $ + .                                         ",
"                        . # <  .@.%.&.Q R R R R R Q ~ U U U U ~ Q R Q &.%.@.*.a s . . .                                         ",
"                        . # < ] ' =.-.W W W W W W ! Q U U U U Q ! W W -.=.' ] < # .                                             ",
"                        . # < V A ` ! W W W W W W ! Q U U U U Q ! W W ! ` A V < # .                                             ",
"                        . # < V A U Q R R R R R R Q ~ U U U U ~ Q R R Q U A V < # .                                             ",
"                        . # < V A S U U U U U U U U U U U U U U U U U U S A V < # .                                             ",
"                        . # < V A S U U U U U U U U U U U U U U U U U U S A V < # .                                             ",
"                        . # < V A S U U U U U U U U U U U U U U U U U U S A V < # .                                             ",
"                        . # & V L [ U U U U U U U U U U U U U U U U U U [ L V & # .                                             ",
"                        . @ % d f ;.:.U U U U U U U U U U U U U U U U :.;.f d % @ .                                             ",
"                        . + g h j >.,.<.U U U U U U U U U U U U U U <.,.>.j h g + .                                             ",
"                        . . o k l z x ,.1.1.1.1.1.1.1.1.1.1.1.1.1.1.,.x z l k o . .                                             ",
"                            O c v b z 2.2.2.2.2.2.2.2.2.2.2.2.2.2.2.2.z b v c O                                                 ",
"                            O O O v n m M M M M M M M M M M M M M M m n v O O O                                                 ",
"                                O c N B B B B B B B B B B B B B B B B N c O                                                     ",
"                                O O O O O O O O O O O O O O O O O O O O O O                                                     ",
"                                                                                                                                ",
"                                                                                                                                "
};
