/* XPM */
static char *_ddffc48c72942dddda757e41e4b00f9kmsBUCpWGNFJGmHK[] = {
/* columns rows colors chars-per-pixel */
"64 64 256 2 ",
"   c None",
".  c #020206",
"X  c #03040B",
"o  c #0C030A",
"O  c #0D0208",
"+  c #17020B",
"@  c #030611",
"#  c #060914",
"$  c #070C1A",
"%  c #090D1C",
"&  c #0B0A14",
"*  c #160C15",
"=  c #0D111D",
"-  c #0D1017",
";  c #1E151A",
":  c #37030D",
">  c #280716",
",  c #370714",
"<  c #2C0811",
"1  c #0A0F22",
"2  c #0A1123",
"3  c #0C142B",
"4  c #0E1827",
"5  c #131828",
"6  c #0D1736",
"7  c #131B37",
"8  c #321529",
"9  c #1C2335",
"0  c #262739",
"q  c #372A34",
"w  c #32201D",
"e  c #460512",
"r  c #560715",
"t  c #4A131D",
"y  c #670919",
"u  c #780919",
"i  c #60010D",
"p  c #50162C",
"a  c #6A1424",
"s  c #781A28",
"d  c #70102B",
"f  c #4F2E32",
"g  c #712E30",
"h  c #4D241B",
"j  c #7F4035",
"k  c #0D1D47",
"l  c #131E48",
"z  c #131F54",
"x  c #1A2446",
"c  c #162858",
"v  c #0D2154",
"b  c #242C46",
"n  c #2A334A",
"m  c #253357",
"M  c #343550",
"N  c #172C68",
"B  c #172C7A",
"V  c #1B3576",
"C  c #162D6D",
"Z  c #2D366C",
"A  c #4C364B",
"S  c #733649",
"D  c #503E64",
"F  c #3C445A",
"G  c #394569",
"H  c #2F457B",
"J  c #704A4F",
"K  c #48506C",
"L  c #65586E",
"P  c #860A1A",
"I  c #970918",
"U  c #920D17",
"Y  c #B8091A",
"T  c #AB0C17",
"R  c #980D24",
"E  c #851727",
"W  c #981827",
"Q  c #9E1A37",
"!  c #930F2B",
"~  c #BA0D22",
"^  c #A71426",
"/  c #B91627",
"(  c #AB1834",
")  c #B81A35",
"_  c #AC0D28",
"`  c #932633",
"'  c #B8243B",
"]  c #AD2332",
"[  c #C50A19",
"{  c #D5081C",
"}  c #D71118",
"|  c #E80B18",
" . c #F5091A",
".. c #EE0A16",
"X. c #C90D27",
"o. c #C71528",
"O. c #DA162A",
"+. c #C81A36",
"@. c #D81A36",
"#. c #D70C2C",
"$. c #E60D25",
"%. c #E61629",
"&. c #F6142A",
"*. c #EA1936",
"=. c #F81836",
"-. c #F10E2D",
";. c #DA232D",
":. c #C6263A",
">. c #DA2538",
",. c #C2222A",
"<. c #E72439",
"1. c #ED2834",
"2. c #8D4B38",
"3. c #BA6430",
"4. c #D1612C",
"5. c #B61C45",
"6. c #90364D",
"7. c #A6364A",
"8. c #B02F50",
"9. c #B33966",
"0. c #912D5A",
"q. c #C41B44",
"w. c #F21745",
"e. c #D62648",
"r. c #D73246",
"t. c #CF2E4D",
"y. c #E82746",
"u. c #F62848",
"i. c #E63549",
"p. c #F7354B",
"a. c #F62958",
"s. c #EA3857",
"d. c #F83457",
"f. c #EA2C5A",
"g. c #D33567",
"h. c #E93865",
"j. c #F73568",
"k. c #F93E74",
"l. c #EC346F",
"z. c #8C4C4F",
"x. c #B24B57",
"c. c #B06855",
"v. c #8D586A",
"b. c #B1546E",
"n. c #B56E71",
"m. c #9A6964",
"M. c #D34A59",
"N. c #E9455B",
"B. c #ED4A56",
"V. c #CC566F",
"C. c #E84663",
"Z. c #F54A6B",
"A. c #F64877",
"S. c #F85877",
"D. c #F0546D",
"F. c #D76C7A",
"G. c #EF6C73",
"H. c #F26C5F",
"J. c #DA9577",
"K. c #CE856D",
"L. c #F2A169",
"P. c #F9C770",
"I. c #E1943F",
"U. c #16348C",
"Y. c #2A3B92",
"T. c #254698",
"R. c #324D8E",
"E. c #1A48B4",
"W. c #3054AE",
"Q. c #3C64B9",
"!. c #485787",
"~. c #4B559B",
"^. c #566892",
"/. c #68718F",
"(. c #5057AB",
"). c #4F6DB3",
"_. c #7D6BB6",
"`. c #386ED3",
"'. c #4975C9",
"]. c #5376CA",
"[. c #4377D5",
"{. c #435FC2",
"}. c #503D95",
"|. c #FC3E82",
" X c #8D6DAE",
".X c #9A7092",
"XX c #F75887",
"oX c #F55390",
"OX c #D07490",
"+X c #F86787",
"@X c #FA6899",
"#X c #FB7B99",
"$X c #F06A8C",
"%X c #F976AB",
"&X c #F96EB0",
"*X c #F67DC1",
"=X c #778AB3",
"-X c #72839B",
";X c #5989D8",
":X c #5E8CD7",
">X c #6696DB",
",X c #6F90D5",
"<X c #4786E2",
"1X c #5799E9",
"2X c #4B97E9",
"3X c #689AE1",
"4X c #5BA8ED",
"5X c #68A5E9",
"6X c #77A8E7",
"7X c #7AB5ED",
"8X c #7CA4DA",
"9X c #8C8994",
"0X c #AE8693",
"qX c #9091B5",
"wX c #AF92AA",
"eX c #99A7B8",
"rX c #ACAEB7",
"tX c #D49584",
"yX c #F9859A",
"uX c #F19A89",
"iX c #ECAF8F",
"pX c #D198A9",
"aX c #FB85AB",
"sX c #FB96A9",
"dX c #F88CB8",
"fX c #D5A8AE",
"gX c #F5B1B1",
"hX c #DFA098",
"jX c #F8CC8C",
"kX c #FDE790",
"lX c #F8D5AC",
"zX c #FDE2B0",
"xX c #8994CB",
"cX c #96ADD1",
"vX c #ABB1D1",
"bX c #87B7EB",
"nX c #95BBE9",
"mX c #85B3EA",
"MX c #A3A2D2",
"NX c #CAB0C4",
"BX c #FAB2D1",
"VX c #FC98C9",
"CX c #BDC2CA",
"ZX c #97C2F1",
"AX c #95C1EF",
"SX c #B1CEEE",
"DX c #CCCCD1",
"FX c #F5D3C8",
"GX c #F5CFCE",
"HX c #CADAEF",
"JX c #FDD2E6",
"KX c #D1E6F6",
"LX c #FBEBEB",
"PX c #FDF6F6",
"IX c #F6E5EE",
"UX c #F8E1DA",
/* pixels */
"`.<X5X                                                                                                                          ",
"5X5X4X4X                                                                                                                        ",
"SXAX1X2X4X                                                      B.=.u.p.1.                                                      ",
"HXHXbX4X2X5X                                                <. .1.&.=.1...%.r.                                                  ",
"ZXSXSXbX4X2X5X                                            r... .u.u.p.p.....%.%.                                                ",
"`.;X7X6X5X1X2X                                          %.%. .=.S.S.S.S.&...%.$.                                                ",
"U.E.`.<X1X1X2X<X                          PX            | %.<.d.+XS.S.S.&.%.>.| i.                                              ",
"v U.E.`.<X1X1X<X[.              sXyXgXBXJXIXIXLXIX      | <.=.d.+X+X#X+X&. .%.} >.                                              ",
"k C U.E.`.[.3X,X XOXZ.Z.B.B.i.B.B.D.+X@XaX%XdXBXJXJXIX+X$.&.p.Z.yXyX#X+X=. .%...:.                                              ",
"A Z Y.(. X.XV.M.<.s.u.i.;.>.;.M.1.p.p.d.S.A.@XdXBXJXaXZ. .&.Z.+XsXsXsXaXu.&.%...;.                                              ",
"s.h.h.XXZ.D.<.>.O.>.;.:.,.:.} ;...1.=.=.d.a.k.XXoXXXa.u. .=.S.#XgXsXsXyXu.%.O. .*.                                              ",
"@.f.y.h.h.s.i.<.;.O.o./ ~ / [ ,.} ;.%.1.C.d.Z.A.k.Z.d.<.=.u.+XsXgXsXsX#Xu.&.$.@.<.                                              ",
"}.(._.xXqX X.X9.8.) ] ` W ` W ` Y ,.} ..<.&.=.u.w.u.-.-.y.p.+XsXgXsXaX#Xu.=. .1.i.                                              ",
"U.W.].,XxX,X:X'.W.Z Z A f E I W T [ o.| %.| | i.u.s.;.O.' N.S.sXsX#X#X+Xu.*. .p.N.                                              ",
"U.Y.Q.].].{.Q.W.T.U.N c v q P I U I T T T ^ [ ;.-.%.~ ~ S b.Z.$X+XA.S.Z.y.O.%.s.V.                                              ",
"N B Y.T.Y.U.U.B B B C C c 7 A ` W U P s I T Y [ [ { ^ P 0Xm.N.S.Z.u.u.d.=.$.<.M.m.                                              ",
"l l x l 7 7 6 6 6 l z c x 3 4 0 J g u P W Y R I R ~ W a DXwXM.p.u.*.=.=.-. .1.x.9X                                              ",
"0 5 % % % % % 2 1 2 7 x n n b 5 9 0 8 t a E u I X.$.~ p DXCX6.@.*.@.>.#.X.$.>.0XpX                                              ",
"  K % % % 1 2 3 3 3 c ).8XnXmX            A P I [ O.Y t rXDX9X^  .| | | { Y z.DXOX$X                                            ",
"  L 4 $ % % 1 2 2 3 3 H ,XmXbX>X          0 a U ~ +.^ t .XDXCXJ _ o.o.[ Y s rXNX] s.@XJX                                        ",
"  ^.9 # $ $ % % % 2 2 m ).8X6X>X        eX0 t P ~ @.X.y z.rXCXqXp Y T u t .XHXn.+.y.a.dXJX                                      ",
"  /.b # # # # $ % = = 7 ~.,X>X;X        eX0 r Y %.*.} s 7.J /.9XA E E , L vX9X] +.*.u.A.aXBX                                    ",
"    F # # # # # % % % 3 G =X:X).        =X0 u X.O.@.+.W 7.q.y a E / ^ t J A a +.:.*.y.a.A.%XVX                                  ",
"    /.= # @ @ # # % % 2 m ).).W.H     eX/.0 u ~ o.%.%.{ ] g.^ [ <.<.@.^ i e ^ @.%.<.y.w.Z.XX%XdXVX                              ",
"    =X0 # X # # % % 2 2 x !.~.H c     -XK 9 u X.%.-.%.O.] t.*.O.o./ / o.r u { } >.*.-.y.j.A.XX@XaXBX                            ",
"    cXF # # # # % % 2 2 7 G !.m 7     L K 7 u X.-.%.>.@.o.X.w.X.u i P R u ~ O.:.%.-.<.i.a.j.A.k.XX@XdX                          ",
"      ^.= # # # % % 2 2 3 n G x 2     K n 7 a { O.+.@.' / / +.W y r y y W :.@.%.O.<.i.&.y.h.a.k.k.k.oX@X                        ",
"      =X0 # % # % % % 3 3 7 b 7 $ q 9Xn 4 3 8 { +.@.7.:.+.' [ u y e r T o.%.>.<.:.%.*.i.y.u.a.j.d.j.a.j.XX                      ",
"      cXG % $ % $ % % 2 3 2 5 4 # 0 F 7 2 2 9 ~ o.e.x.+.` / ~ U a a E @.r.y.r.-.O.O.<.e.=.w.h.a.=.u.u.u.d.h.                    ",
"        /.4 $ $ # # % 2 2 % 2 = # 9 0 % 2 2 8 ^ ` 7.7.6.6.[ I E T Y o.-.<.=.y.<.@.:.%.$.@.w.w.w.*.=.=.p.-.y.                    ",
"        qXb $ $ # # % % 2 % % = # - = % 2 2 > I ` ( ` 6.S s P ^ o.:.r.y.i.i.i.y.-.+.+.+.+.@.#.+.+.-.1.y.@.+.t.                  ",
"        vX!.% # # # $ % = % # $ # @ # % 1 1 e u s ^ E E A f a ~ X.' >.>.y.u.a.N.i.:.' ) ) ( Q _ +.>.<.{ ' ' q.t.                ",
"          =Xx # # # # % % # X & X X # # % > r r a R s E q q A 6.z.x.r.M.N.N.Z.B.B.r.8.t.:.8.7.8.r.1.o.( ( ] ' e.s.              ",
"          SX!.2 # # # % $ @ . X o X X # * : r r u s W f 0 f z.b.b.t.M.C.S.S.S.D.B.M.M.M.OXfXNXgXuXF.x.7.7.b.M.i.s.s.            ",
"            xXn $ # # % # X . . o o X o > : y U y E R p p Q x.V.b.n.V.D.+XXXS.G.G.G.uXgXUX    LXFXfXn.n.0XwXwXF.N.s.s.          ",
"            SX^.5 # # # @ . . . o o o + : e y u u P P R ` 6.8.t.F.C.N.D.G.G.$XyXuXgXUX            iXJ.tXpXfXNXvXOXC.i.D.        ",
"              cXZ % # @ X . . . . O + + : e e r P u a s Q 5.x.b.n.V.B.H.G.uXgXGXUX                  iXL.hXhXfXNXNXfXJ.L.P.      ",
"              HX/.5 @ X X . . . . O + + : : : : r u R ( ` 7.8.t.M.H.G.uXgXFXLX                        iXiXiXiXiXlXlXzXjXI.H.yX  ",
"                cXm # X X . . . . O + + + < : : r I ( Q ( +.t.M.F.hXgXFXLXPX                              kXkXkXP.P.J.m.x.y.A.  ",
"                HX^.% @ . . . . X . O O + < e i y u R _ ) 7.b..XtXiXFXLX                                      zXJ.c.J S :.e.j.  ",
"                  cX7 @ . . . . X . O + + < : r r y a s S v.n.tXiXFXLX                                            J g / %.y.j.&X",
"                  HXG # . . . . X X O + + + + < , w q f J c.J.gXUXPX                                              J ` o.>.*.a.@X",
"                    /.1 X . . . . @ o O + o o * ; w f z.c.tXFXLXPX                                                6.( ~ $.*.a.@X",
"                    cXm $ @ . . . X # o O o * ; w f 2.c.J.GXPXPX                                                  7.) X.<.y.f.%X",
"                    SX).6 2 $ X . . @ % + + > w h g 2.K.GXLX                                                        ( X.$.*.a.&X",
"                      ,Xc 6 6 6 3 % # # o + , t f j n.GXLX                                                          Q +.@.y.A.%X",
"                      nXR.k k v c c x 3 = * < r ` n.fXLX                                                            0.5.@.y.l.&X",
"                      SXQ.C v v v k k 7 x b n A 6.F.GX                                                              0.5.q.f.oX*X",
"                      HX>XT.N v k 6 7 7 x m D v.K.P.kX                                                              b.8.e.f.oX*X",
"                      KXnX'.Y.C v k k 9 q g 3.I.L.P.jX                                                              OX8.e.h.oX  ",
"                        SX3XQ.T.N x n S 2.3.4.4.3.c.n.pX                                                            L 8.e.l.&X  ",
"                        KXnX,X(.!.A J z.z.2.g h h f v.wX                                                          5.0.9.9.l.&X  ",
"                        SXvXcX=X/.f f M n 0 0 0 q A L wX                                                  0.7.5.5.q.q.8.OXOX*X  ",
"                  S ~.).(.~.!.K m 7 x c c N Z Z G K /.vXKX                                                        g p d v.pXVX  ",
"            e.@.e. X,X:X].W.T.V C N V V R.W.).).R.!.=XSXKX                                                          p 8 p g.%X  ",
"5.) ( ( :.y.B.B.OXmX6X3X>X;X'.W.W.T.W.'.:X6X8X).R.R.=XSX                                                              p > s V.  ",
"#.@.@.y.p.Z.+X@XMXbXmXmX6X6X5X>X;X;X>X6XAXSXSX3XQ.H =XZX                                                                q , 8.&X",
"k.Z.j.Z.Z.S.@XdXnXZXZXAXnXbXbX7X7X6X3X3X5X>X:X'.T.V ).nX                                                                  8 g.&X",
"oX@X@X@XXX$X$XqX6XnXAXnXmX6X5X5X>X'.W.W.W.T.V C c c ~.                                                                    p l.VX",
"5.e.l.oX|.j.h.~.Q.].;X].).W.R.R.V c v x k k 7 6 7 x R.                                                                    r g.  ",
"e r y ! ( X.( m N V V C c k 3 4 1 2 3 4 2 = = 5 n G                                                                     d d 9.  ",
"t e , : : : , 7 6 3 6 3 3 2 % & % % = 4 5 9 0 M                                                                       Q R e.    ",
"      p 8 , < ; = = = = = = = = 4 5 n K /.                                                                                      ",
"                0 0 0 n n M M M K ^.-X                                                                                          "
};
