/* XPM */
static char *_56869d4700849ccd5aecb65ac2566e42jfQ0fn9fUjNVZBO[] = {
/* columns rows colors chars-per-pixel */
"64 64 199 2 ",
"   c #020002",
".  c #05070B",
"X  c #0C0708",
"o  c #0C0A0C",
"O  c #180E0E",
"+  c #0C0D11",
"@  c #120E10",
"#  c #151214",
"$  c #191416",
"%  c #161519",
"&  c #1A1618",
"*  c #1C191B",
"=  c #271411",
"-  c #211C1E",
";  c #331F1B",
":  c #1C1C20",
">  c #221F21",
",  c #252124",
"<  c #292426",
"1  c #27272B",
"2  c #2A2628",
"3  c #2D2A2C",
"4  c #352421",
"5  c #312C2E",
"6  c #322E31",
"7  c #353133",
"8  c #383436",
"9  c #3A3739",
"0  c #3D3A3C",
"q  c #47241B",
"w  c #55291D",
"e  c #632D1D",
"r  c #403C3F",
"t  c #523B35",
"y  c #622F21",
"u  c #673425",
"i  c #6B3221",
"p  c #773B28",
"a  c #693C30",
"s  c #7E402D",
"d  c #68453C",
"f  c #433E41",
"g  c #454244",
"h  c #494446",
"j  c #47464A",
"k  c #4E4A4C",
"l  c #544948",
"z  c #534D4E",
"x  c #514E50",
"c  c #555153",
"v  c #585354",
"b  c #5A5758",
"n  c #5D595B",
"m  c #6F4A40",
"M  c #7F564A",
"N  c #665A58",
"B  c #615C5E",
"V  c #6B615F",
"C  c #625F60",
"Z  c #676264",
"A  c #6A6566",
"S  c #6B6768",
"D  c #6D6A6B",
"F  c #726D6E",
"G  c #7B6F6D",
"H  c #7B706E",
"J  c #757172",
"K  c #7A7576",
"L  c #7C7779",
"P  c #7D797B",
"I  c #834533",
"U  c #864B39",
"Y  c #8B4D3A",
"T  c #8A5748",
"R  c #975947",
"E  c #9F604D",
"W  c #896053",
"Q  c #936051",
"!  c #996454",
"~  c #A1624F",
"^  c #A56552",
"/  c #A96A56",
"(  c #A66C5B",
")  c #AC6E5A",
"_  c #A0705F",
"`  c #AE705C",
"'  c #B2735E",
"]  c #997164",
"[  c #837471",
"{  c #847877",
"}  c #837D7E",
"|  c #AD7664",
" . c #AE7C6C",
".. c #B47562",
"X. c #B67965",
"o. c #BA7A65",
"O. c #B07D6D",
"+. c #BA7D69",
"@. c #BE816D",
"#. c #AD8477",
"$. c #BD8572",
"%. c #B98776",
"&. c #BF8C7A",
"*. c #C0836F",
"=. c #C38672",
"-. c #C68975",
";. c #CA8B75",
":. c #C58E7B",
">. c #CA8E79",
",. c #C4907E",
"<. c #CE917D",
"1. c #D0947E",
"2. c #847F80",
"3. c #858183",
"4. c #8A8483",
"5. c #8B8788",
"6. c #8D898A",
"7. c #968C8A",
"8. c #918C8D",
"9. c #938F90",
"0. c #969292",
"q. c #9C9594",
"w. c #9E9B9B",
"e. c #A49E9D",
"r. c #ADA19E",
"t. c #ABA7A8",
"y. c #B7ACA8",
"u. c #BDB1AD",
"i. c #BBB7B7",
"p. c #C59382",
"a. c #CC9682",
"s. c #CD9986",
"d. c #C49A8A",
"f. c #CD9B89",
"g. c #D29681",
"h. c #D49A85",
"j. c #D89C85",
"k. c #D39D89",
"l. c #D99E89",
"z. c #D4A18D",
"x. c #DBA28D",
"c. c #CBA191",
"v. c #D6A591",
"b. c #DCA691",
"n. c #DDAA95",
"m. c #D7AE9D",
"M. c #DDAE99",
"N. c #DFB19C",
"B. c #E1AA95",
"V. c #E1AE9A",
"C. c #E2B29D",
"Z. c #EFB39C",
"A. c #DAB9AC",
"S. c #E4B5A2",
"D. c #EAB6A1",
"F. c #E7B9A6",
"G. c #E9BAA6",
"H. c #E6BBA9",
"J. c #EABDAA",
"K. c #F1BEA9",
"L. c #CBC0BD",
"P. c #EEC1AE",
"I. c #F2C1AD",
"U. c #EEC4B2",
"Y. c #EFC8B7",
"T. c #ECCABD",
"R. c #F3C5B3",
"E. c #F9C5B1",
"W. c #F5C8B7",
"Q. c #F8C9B6",
"!. c #F5CBBA",
"~. c #F9CDBC",
"^. c #FCD0BE",
"/. c #D0CAC7",
"(. c #D2D1D2",
"). c #DDDADB",
"_. c #E6CAC0",
"`. c #FBCFC0",
"'. c #EBD0C5",
"]. c #F6D1C2",
"[. c #FCD3C3",
"{. c #F2D5CA",
"}. c #FDD7C8",
"|. c #FED9CB",
" X c #E9DBD6",
".X c #F3DBD1",
"XX c #FEDDD0",
"oX c #EFE1DC",
"OX c #F6E2D9",
"+X c #E7E5E4",
"@X c #EFEFEF",
"#X c #F8EBE5",
"$X c #F9EDE8",
"%X c #F9F1EE",
"&X c #F3F1F1",
"*X c #FCF6F4",
"=X c #FDF8F6",
"-X c #FDFDFD",
";X c white",
/* pixels */
";X;X;X;X;X;X;X;X;X;X;X;X;X;X;X;X;X;X;X;X;X;X;X;X;X;X;X;X;X;X;X;X;X;X;X;X;X;X;X;X;X;X;X;X;X;X;X;X;X;X;X;X;X;X;X;X;X;X;X;X;X;X;X;X",
";X;X;X;X;X;X;X;X;X;X;X;X;X;X;X;X;X;X;X;X;X;X;X;X;X;X;X;X;X;X;X;X;X;X;X;X;X;X;X;X;X;X;X;X;X;X;X;X;X;X;X;X;X;X;X;X;X;X;X;X;X;X;X;X",
";X;X;X;X;X;X;X;X;X;X;X;X;X;X;X;X;X;X;X;X;X;X;X;X;X;X;X;X;X;X;X;X;X;X;X;X;X;X;X;X;X;X;X;X;X;X;X;X;X;X;X;X;X;X;X;X;X;X;X;X;X;X;X;X",
";X;X;X;X;X;X;X;X;X;X;X;X;X;X;X;X;X;X;X;X;X;X;X;X;X;X;X;X;X;X;X;X;X;X;X;X;X;X;X;X;X;X;X;X;X;X;X;X;X;X;X;X;X;X;X;X;X;X;X;X;X;X;X;X",
";X;X;X;X;X;X;X;X;X;X;X;X;X;X;X;X;X;X;X;X;X;X;X;X;X;X;X;X;X;X;X;X;X;X;X;X;X;X;X;X;X;X;X;X;X;X;X;X;X;X;X;X;X;X;X;X;X;X;X;X;X;X;X;X",
";X;X;X;X;X;X;X;X;X;X;X;X;X;X;X;X;X;X;X;X;X;X;X;X;X;X;X;X;X;X;X;X;X;X;X;X;X;X;X;X;X;X;X;X;X;X;X;X;X;X;X;X;X;X;X;X;X;X;X;X;X;X;X;X",
";X;X;X;X;X;X;X;X;X;X;X;X;X;X;X;X;X;X;X;X;X;X;X;X;X;X;X;X;X;X;X;X;X;X;X;X;X;X;X;X;X;X;X;X;X;X;X;X;X;X;X;X;X;X;X;X;X;X;X;X;X;X;X;X",
";X;X;X;X;X;X;X;X;X;X;X;X;X;X;X;X;X;X;X;X;X;X;X;X;X;X;X;X;X;X;X;X;X;X;X;X;X;X;X;X;X;X;X;X;X;X;X;X;X;X;X;X;X;X;X;X;X;X;X;X;X;X;X;X",
";X;X;X;X;X;X;X;X;X;X;X;X;X;X;X;X;X(.;X;X;X;X;X;X;X;X;X;X;X;X;X;X;X;X;X;X;X;X;X;X;X;X;X;X;X;X;X;X;X;X;X;X;X;X;X;X;X;X;X;X;X;X;X;X",
";X;X;X;X;X;X;X;X;X;X;X;X;X;X;X;X;X6./.;X;X;X;X;X;X;X;X;X;X;X;X;X;Xe.w. X;X@X(.t.;X;X;X;X;X;X;X;X;X;X;X;X;X;X;X;X;X;X;X;X;X;X;X;X",
";X;X;X;X;X;X;X;X;X;X;X;X;X).{ } } 7.{ N N N H y.#X;X;X;X;X;X;X;XK c g 0.;X(.5., v ;X;X;X;X;X;X;X;X;X;X;X;X;X;X;X;X;X;X;X;X;X;X;X",
";X;X;X;X;X;X;X;X;X;X;X;X;Xu.4.6.3.3.} P 2.} P 3.} } ).+X@X&X;X8.7 x b b z c n D b } ;X;X;X;X;X;X;X;X;X;X;X;X;X;X;X;X;X;X;X;X;X;X",
";X;X;X;X;X;X;X;X;X;X;X;X;Xy.J 0.8.5.} 3.6.} 2.z r k k x n C c g n b c z c c z z z l u.;X;X;X;X;X;X;X;X;X;X;X;X;X;X;X;X;X;X;X;X;X",
";X;X;X;X;X;X;X;X;X;X;X;X;Xu.F D L 6.3.P 4.5.8.h 6 8 7 5 F C C C J k k Z K 4.t.e.r.q.F } &X;X;X;X;X;X;X;X;X;X;X;X;X;X;X;X;X;X;X;X",
";X;X;X;X;X;X;X;X;X;X;X;X;Xu.L F B K 6.F C S 2.k 6 7 6 3 D A Z Z n 3 $ * & # $ > , 3 9 7 D ;X;X;X;X;X;X;X;X;X;X;X;X;X;X;X;X;X;X;X",
";X;X;X;X;X;X;X;X;X;X;X;X;Xu.4.J Z S 0.v J } 5.z 6 7 7 3 A D A Z x , $ # # - * * * # & $ f ;X;X;X;X;X;X;X;X;X;X;X;X;X;X;X;X;X;X;X",
";X;X;X;X;X;X;X;X;X;X;X;X;Xy.7.0.5.3.8.J n f v c 5 8 7 3 C D A A b 3 * & , , , > > * & & h ;X;X;X;X;X;X;X;X;X;X;X;X;X;X;X;X;X;X;X",
";X;X;X;X;X;X;X;X;X;X;X;X;X;XF L q.q.8.6.6.6.} c 6 7 7 3 B F S A c , # * , , 3 3 3 3 < * l ;X;X;X;X;X;X;X;X;X;X;X;X;X;X;X;X;X;X;X",
";X;X;X;X;X;X;X;X;X;X;X;X;X;XZ n z 0 L 0.6.6.8.c 6 6 7 3 B F D A k & @ , 3 3 3 7 3 2 > # z ;X;X;X;X;X;X;X;X;X;X;X;X;X;X;X;X;X;X;X",
";X;X;X;X;X;X;X;X;X;X;X;X;X;Xi.F C Z h S S 9 6.v 7 7 7 3 n D D Z z 2 * > # $ & & $ & * $ N ;X;X;X;X;X;X;X;X;X;X;X;X;X;X;X;X;X;X;X",
";X;X;X;X;X;X;X;X;X;X;X;X;X;X;Xz A 7 Z } J r r g 9 0 6 3 v S D A k > & * @ * 2 < < , & # V ;X;X;X;X;X;X;X;X;X;X;X;X;X;X;X;X;X;X;X",
";X;X;X;X;X;X;X;X;X;X;X;X;X&Xi.f 8 9 n 5.3.h D 3 & 6 8 3 D Z D D g > # $ * # $ < @ # # @ G ;X;X;X;X;X;X;X;X;X;X;X;X;X;X;X;X;X;X;X",
";X;X;X;X;X;X;X;X;X;X;X;X;X0.f o 9 6 n L 8.J x 9 3 8 - * F D D D f * # # # # # $ # $ # X 4.;X;X;X;X;X;X;X;X;X;X;X;X;X;X;X;X;X;X;X",
";X;X;X;X;X;X;X;X;X;X;X;X;X4.k   k 6 D F q.q.K 0 * 3 g 0 > 6 B J 0 # # # # # # # # # @   4.;X;X;X;X;X;X;X;X;X;X;X;X;X;X;X;X;X;X;X",
";X;X;X;X;X;X;X;X;X;X;X;X;X;XJ 3 # D D x c Z 0 9 9 r 9 3 9 j > > , # # $ o o # $ $ # 6 > L.;X;X;X;X;X;X;X;X;X;X;X;X;X;X;X;X;X;X;X",
";X;X;X;X;X;X;X;X;X;X;X;X;X;XL C + h G [ N z z z j , 3 6 k 0 0 f 3 # B J F D F P 8.9.8.n 7 *X;X;X;X;X;X;X;X;X;X;X;X;X;X;X;X;X;X;X",
";X;X;X;X;X;X;X;X;X;X;X;X;X;Xi.3 #.E.K.J.K.K.I.I.C.p.] t 3 1 3 9 , 7 0 f 0 8 5 5 7 , - 8 7 +X;X;X;X;X;X;X;X;X;X;X;X;X;X;X;X;X;X;X",
";X;X;X;X;X;X;X;X;X*X!.C.m.=X+XD.I.J.J.J.J.P.U.P.U.P.R.K.B.W # & , * & & , 3 3 9 9 6 5 * % U.*X;X;X;X;X;X;X;X;X;X;X;X;X;X;X;X;X;X",
";X;X;X;X;X;X;X.XH.C.V.b.;.^ V.C.F.F.J.J.P.P.P.R.!.!.R.S.J.R.Z.! $ : > $ # # # @ $ # # # * I.J..X;X;X;X;X;X;X;X;X;X;X;X;X;X;X;X;X",
";X;X;X;X;X*XS.S.J.J.J.n.*.+.B.n.b.V.C.C.F.J.P.P.P.R.R.R.Q.Q.~.^.D.t . + % $ $ # & o . X _ ^.!.U.!.*X;X;X;X;X;X;X;X;X;X;X;X;X;X;X",
";X;X;X;X;Xj.J.J.P.P.R.b.X.@.l.x.x.x.V.b.b.b.C.C.V.J.R.Q.~.~.~.~.[.|.C.T q = O O = t ] K.[.~.~.!.Y.!.*X;X;X;X;X;X;X;X;X;X;X;X;X;X",
";X;X;X;X_.z.J.J.U.!.!.G./ ..g.x.j.x.x.x.l.x.x.1.B.J.R.~.[.[.~.~.~.`.[.[.[.E.K.D.I.[.[.[.!.~.~.~.!.Y.{.;X;X;X;X;X;X;X;X;X;X;X;X;X",
";X;X;X;XN.C.J.U.Y.!.~.~.k.R 1.l.j.l.x.g.1.l.l.h.B.P.Q.~.~.~.[.[.[.[.~.[.~.~.~.~.~.[.~.[.!.~.[.~.!.P.U.=X;X;X;X;X;X;X;X;X;X;X;X;X",
";X;X;X;XS.S.F.J.Y.!.~.~.R.` o.l.g.h.j.1.<.g.l.l.V.P.Q.Q.~.[.[.~.[.~.~.~.~.[.~.~.~.~.~.~.~.~.[.!.Q.!.U.{.;X;X;X;X;X;X;X;X;X;X;X;X",
";X;X;X*Xb.C.F.U.Y.!.}.|.~.P.R =.g.g.g.<.<.<.<.x.B.J.~.Q.~.~.[.[.[.[.~.~.~.~.~.Q.Q.~.~.~.~.~.~.~.[.!.U.Y.;X;X;X;X;X;X;X;X;X;X;X;X",
";X;X;X$Xn.F.J.Y.!.Q.~.[.~.Q.V.Y o.=.<.<.>.-.<.g.n.J.~.Q.~.Q.~.~.~.[.~.~.~.!.~.Q.~.Q.Q.Q.[.~.[.!.!.Q.J.P.$X;X;X;X;X;X;X;X;X;X;X;X",
";X;X;X{.n.S.S.J.R.Q.~.[.[.~.P.g.I R o.=.=.-.-.<.x.S.R.~.Q.Q.~.~.~.~.~.~.~.[.!.~.R.~.Q.R.~.~.!.[.~.~.J.F.U.;X;X;X;X;X;X;X;X;X;X;X",
";X;X;X'.n.S.J.J.P.R.Q.~.[.~.P.x.` i u o.=.=.;.<.l.S.R.Q.Q.Q.R.Q.Q.Q.[.[.~.~.Q.Q.~.Q.~.~.[.~.!.~.~.R.P.F.D.;X;X;X;X;X;X;X;X;X;X;X",
";X;X;XT.C.C.S.J.J.Q.~.~.~.~.Q.G.=.~ u ; ;.=.>.1.l.B.G.R.R.R.Q.Q.~.Q.~.~.[.~.~.~.Q.Q.Q.~.!.~.!.R.P.Q.R.R.D.OX;X;X;X;X;X;X;X;X;X;X",
";X;X;XT.n.z.b.C.J.Q.~.~.[.[.[.U.x.` Y q d ;.<.g.l.n.J.!.P.Q.Q.~.Q.~.!.!.~.~.~.~.Q.Q.Q.!.~.Q.R.R.Q.R.Q.J.S.!.;X;X;X;X;X;X;X;X;X;X",
";X;X;Xx.x.k.z.C.J.R.~.~.~.[.[.~.J.<.T i @ ;.g.1.h.x.b.C.R.~.!.Q.!.!.!.~.R.Q.!.~.~.Q.!.!.Q.~.Q.Q.Q.R.R.U.P.V.=X;X;X;X;X;X;X;X;X;X",
";X;X;Xj.x.h.h.n.F.J.!.~.~.[.[.[.!.b...s e Q >.>.<.l.F.R.!.!.!.~.Q.Q.~.`.~.~.~.Q.~.R.!.~.!.~.~.~.!.R.U.J.J.C.$X;X;X;X;X;X;X;X;X;X",
";X;XT.b.b.l.k.z.C.J.R.!.[.[.[.[.~.R.g.~ p w +.j.b.M.S.J.R.Q.Q.~.~.~.~.~.~.[.[.[.~.~.[.!.!.Q.!.~.Q.R.P.J.J.n.T.;X;X;X;X;X;X;X;X;X",
";X;XM.V.S.x.z.z.V.G.J.!.~.[.[.[.|.~.F.@.Y e g.x.x.x.C.S.P.R.!.!.~.~.~.[.[.[.~.[.[.~.[.~.!.[.Q.~.!.~.R.J.J.S.V.=X;X;X;X;X;X;X;X;X",
";X;Xz.x.S.n.k.h.n.F.F.Y.~.~.[.}.}.[.!.z.^ s g.g.h.x.b.V.F.P.Q.!.~.[.~.[.[.[.|.[.[.[.[.[.[.[.[.~.~.}.!.J.J.J.J.{.;X;X;X;X;X;X;X;X",
";XS.>.x.S.B.h.b.k.S.J.U.R.~.[.}.}.}.[.G.;.Y *.1.<.h.b.C.H.J.Y.!.!.~.~.~.~.[.[.[.[.[.[.[.[.~.[.[.[.[.~.P.R.U.U.P.;X;X;X;X;X;X;X;X",
";Xz.a.h.b.M.x.k.x.z.S.J.R.!.~.[.[.[.}.!.x.^ R g.g.k.b.M.C.J.P.!.!.~.~.~.~.[.~.[.[.[.[.[.[.[.[.[.~.[.~.R.Q.Q.U.J.#X;X;X;X;X;X;X;X",
"%Xa.k.g.b.n.x.j.k.k.n.S.J.R.!.[.}.|.|.].J.@.I 1.g.a.k.n.N.S.P.!.!.!.~.~.~.~.[.[.[.[.[.[.[.[.[.[.|.!.[.R.~.~.Q.G.].;X;X;X;X;X;X;X",
"'.s.<.g.b.x.n.x.k.k.n.S.P.U.!.~.[.[.|.}.!.k.R ) g.<.<.k.n.S.F.U.Y.W.~.~.~.!.!.!.[.|.[.[.[.[.[.[.[.[.[.R.Q.~.~.U.D.;X;X;X;X;X;X;X",
"A.a.<.<.x.b.b.n.b.x.x.M.F.W.!.~.[.|.|.|.].S...I <.1.a.k.x.C.J.U.Y.U.W.Q.Q.!.!.!.[.[.|.[.[.[.|.~.[.!.~.[.R.~.Q.[.R.!.;X;X;X;X;X;X",
"m.:.<.<.j.x.b.x.b.n.b.n.S.U.W.!.[.}.|.|.}.U.<.U ..>.<.h.C.C.S.J.J.Y.R.R.!.R.Q.Q.~.}.[.[.|.|.[.[.~.~.~.~.~.~.!.~.!.R.I.$X;X;X;X;X",
"m.:.a.a.h.x.x.x.n.z.x.M.S.J.Y.~.[.}.}.|.|.~.b./ Y >.<.h.n.n.N.F.J.U.W.U.J.R.W.!.Q.[.G.[.[.~.[.[.Q.!.~.~.R.R.[.R.R.Q.R.x.Y.;X;X;X",
"m.p.a.a.h.l.l.x.l.b.n.n.S.F.U.W.~.[.}.|.|.}.F.o.p @.<.a.s.k.b.S.J.Y.P.J.P.U.P.P.R.Q.[.!.Q.}.|.[.~.R.~.!.!.R.R.~.Q.J.P.R.G.U.;X;X",
"v.p.:.h.<.x.b.l.z.x.x.V.C.F.J.R.!.}.}.|.XX|.W.<.Y T >.p.<.a.k.n.S.S.F.U.J.J.J.P.J.U.!.~.[.[.[.[.[.Q.R.~.~.R.Q.R.~.J.~.!.R.I.R.;X",
"z.p.=.<.k.x.x.l.k.k.k.n.C.C.J.P.R.[.[.[.XXXX~.z.E e =.:.;.<.k.z.M.S.F.J.J.J.J.J.J.U.!.~.^.~.~.[.}.[.R.P.R.Q.J.Q.~.J.Q.J.Q.R.S.N.",
"c.p.<.<.j.n.V.x.k.g.k.b.b.n.F.U.Y.~.}.}.|.|.].n./ i ! =.=.:.a.h.v.n.S.S.S.S.F.F.J.P.U.!.~.~.Q.[.[.[.~.Q.R.~.J.J.R.P.S.J.F.C.V.J.",
"A.f.<.>.z.C.V.k.h.g.z.x.b.n.F.U.!.].[.}.[.}.].S...p a o.$.$.=.:.s.v.n.M.S.C.C.S.F.J.S.J.P.R.~.~.[.[.[.Q.J.J.C.R.J.S.J.C.S.S.S.R.",
"#X,.-.a.x.S.C.V.h.<.a.v.b.M.S.J.Y.!.!.~.}.[.!.S.@.I q / +.@.*.=.:.s.f.z.v.M.M.C.S.S.F.J.J.R.R.Q.~.[.[.~.Q.F.J.R.R.J.C.G.S.M.J.R.",
";X,.a.h.b.J.S.b.h.z.<.v.b.b.C.J.U.U.Y.!.!.!.U.N.=.U w d o.@.@.$.$.=.,.a.z.z.v.n.n.S.C.J.J.P.R.R.Q.~.~.~.~.Q.C.G.J.G.F.C.S.C.P.R.",
";Xc.v.z.J.J.S.n.n.k.k.z.j.b.n.J.Y.U.Y.Y.!.!.J.V.-.U y 4 ) +.+.+.+.@.$.@.p.f.f.f.n.b.M.M.F.J.F.P.J.R.R.~.~.~.Q.R.S.J.S.P.J.P.P.C.",
";XA.a.a.C.U.S.F.n.b.h.z.j.x.M.F.Y.W.Y.Y.Y.U.J.C.:.T u $ M ..o.X.X.+.@.$.-.:.,.f.v.v.v.v.N.J.G.U.J.J.P.R.~.~.~.R.R.R.J.R.!.P.R.J.",
";XoX&.>.S.J.U.J.F.x.k.k.h.n.M.F.U.U.U.P.U.P.F.n.&.R i ; - / X.+.+.$.$.@.$.$.=.s.f.z.k.f.z.S.C.n.V.S.G.P.~.J.R.Q.R.R.Q.~.Q.J.I.R.",
";X X&.g.C.U.R.U.S.M.x.k.h.n.J.J.U.Y.J.H.F.J.S.v.:.R p q . m ' $.+.$.$.$.$.%.d.p.p.d.p.k.s.v.n.M.C.F.G.b.g.C.J.Q.~.~.~.I.R.Q.Q.Q.",
";X X,.<.n.S.J.U.J.F.n.b.x.n.J.R.U.U.P.J.S.J.S.v.<.( p q $ # ! |  .O.#. . .%.%.%.%.$.:.a.f.z.m.z.n.M.v.b.n.S.G.R.Q.R.~.R.~.Q.R.R."
};
